<svg width="317" height="71" viewBox="0 0 317 71" fill="none" xmlns="http://www.w3.org/2000/svg">
<path d="M72.133 18.4559H77.7053V41.0438H93.6838V45.9305H72.133V18.4559Z" fill="#197740"/>
<path d="M97.4631 35.4891C97.4631 34.0828 97.7502 32.741 98.3244 31.4637C98.8986 30.1746 99.7248 29.0379 100.803 28.0535C101.881 27.0692 103.199 26.284 104.758 25.6981C106.328 25.1121 108.11 24.8192 110.102 24.8192C112.082 24.8192 113.863 25.118 115.446 25.7156C117.039 26.3016 118.387 27.1102 119.488 28.1414C120.602 29.1727 121.451 30.3856 122.037 31.7801C122.635 33.1746 122.934 34.6688 122.934 36.2625C122.934 36.4617 122.928 36.6785 122.916 36.9129C122.916 37.1356 122.904 37.3406 122.881 37.5281H103.264C103.487 38.1492 103.844 38.7176 104.336 39.2332C104.84 39.7488 105.467 40.1941 106.217 40.5691C106.967 40.9441 107.834 41.2371 108.819 41.4481C109.803 41.6473 110.893 41.7469 112.088 41.7469C113.283 41.7469 114.473 41.6238 115.656 41.3777C116.84 41.1199 117.971 40.7977 119.049 40.4109L120.807 44.3836C120.127 44.7 119.436 44.9813 118.733 45.2274C118.041 45.4617 117.315 45.6609 116.553 45.825C115.803 45.9774 115.012 46.0945 114.18 46.1766C113.36 46.2586 112.492 46.2996 111.578 46.2996C109.246 46.2996 107.201 46.0184 105.444 45.4559C103.686 44.8934 102.215 44.1258 101.031 43.1531C99.8479 42.1805 98.9572 41.0379 98.3596 39.7254C97.7619 38.4129 97.4631 37.0008 97.4631 35.4891ZM117.414 33.4676C117.227 32.8934 116.934 32.3602 116.535 31.868C116.149 31.3641 115.662 30.9305 115.076 30.5672C114.49 30.1922 113.811 29.8992 113.037 29.6883C112.264 29.4774 111.414 29.3719 110.488 29.3719C109.504 29.3719 108.608 29.4832 107.799 29.7059C106.99 29.9285 106.281 30.2274 105.672 30.6024C105.063 30.9774 104.553 31.4109 104.143 31.9031C103.744 32.3953 103.451 32.9168 103.264 33.4676H117.414Z" fill="#197740"/>
<path d="M127.293 35.5594C127.293 34.0711 127.592 32.6766 128.19 31.3758C128.799 30.075 129.66 28.9383 130.774 27.9656C131.899 26.993 133.252 26.2254 134.834 25.6629C136.428 25.1004 138.215 24.8192 140.196 24.8192C142.176 24.8192 143.957 25.1004 145.539 25.6629C147.133 26.2254 148.487 26.993 149.6 27.9656C150.725 28.9383 151.586 30.075 152.184 31.3758C152.793 32.6766 153.098 34.0711 153.098 35.5594C153.098 37.0477 152.793 38.4422 152.184 39.743C151.586 41.0438 150.725 42.1805 149.6 43.1531C148.487 44.1258 147.133 44.8934 145.539 45.4559C143.957 46.0184 142.176 46.2996 140.196 46.2996C138.215 46.2996 136.428 46.0184 134.834 45.4559C133.252 44.8934 131.899 44.1258 130.774 43.1531C129.66 42.1805 128.799 41.0438 128.19 39.743C127.592 38.4422 127.293 37.0477 127.293 35.5594ZM132.76 35.5594C132.76 36.3914 132.924 37.1824 133.252 37.9324C133.592 38.6707 134.078 39.327 134.711 39.9012C135.356 40.4637 136.135 40.9149 137.049 41.2547C137.975 41.5828 139.024 41.7469 140.196 41.7469C141.367 41.7469 142.41 41.5828 143.324 41.2547C144.25 40.9149 145.029 40.4637 145.662 39.9012C146.307 39.327 146.793 38.6707 147.121 37.9324C147.461 37.1824 147.631 36.3914 147.631 35.5594C147.631 34.7274 147.461 33.9363 147.121 33.1863C146.793 32.4363 146.307 31.7801 145.662 31.2176C145.029 30.6434 144.25 30.1922 143.324 29.8641C142.41 29.5242 141.367 29.3543 140.196 29.3543C139.024 29.3543 137.975 29.5242 137.049 29.8641C136.135 30.1922 135.356 30.6434 134.711 31.2176C134.078 31.7801 133.592 32.4363 133.252 33.1863C132.924 33.9363 132.76 34.7274 132.76 35.5594Z" fill="#197740"/>
<path d="M158.354 25.1883H163.557V26.9461C164.94 26.1609 166.258 25.6102 167.512 25.2938C168.778 24.9774 170.014 24.8192 171.221 24.8192C172.803 24.8192 174.268 25.0535 175.615 25.5223C176.963 25.9793 178.129 26.6649 179.113 27.5789C180.098 28.493 180.865 29.6356 181.416 31.0067C181.979 32.366 182.26 33.9422 182.26 35.7352V45.9305H177.074V36.5789C177.074 35.4422 176.91 34.4285 176.582 33.5379C176.266 32.6356 175.803 31.8797 175.194 31.2703C174.596 30.6492 173.863 30.1805 172.996 29.8641C172.141 29.5359 171.18 29.3719 170.113 29.3719C169.551 29.3719 168.971 29.4305 168.373 29.5477C167.787 29.6649 167.207 29.8348 166.633 30.0574C166.071 30.2684 165.526 30.5379 164.998 30.866C164.471 31.1824 163.99 31.5457 163.557 31.9559V45.9305H158.354V25.1883Z" fill="#197740"/>
<path d="M191.91 49.4461C192.567 49.6805 193.235 49.8738 193.914 50.0262C194.594 50.1902 195.25 50.3191 195.883 50.4129C196.528 50.5184 197.143 50.5887 197.729 50.6238C198.315 50.6707 198.836 50.6941 199.293 50.6941C200.676 50.6941 201.877 50.5242 202.897 50.1844C203.928 49.8563 204.783 49.4109 205.463 48.8484C206.154 48.2859 206.67 47.6297 207.01 46.8797C207.35 46.1414 207.52 45.3563 207.52 44.5242V43.6277C207.074 43.9324 206.553 44.2254 205.955 44.5066C205.358 44.7879 204.701 45.034 203.987 45.2449C203.272 45.4559 202.51 45.6258 201.701 45.7547C200.904 45.8836 200.078 45.9481 199.223 45.9481C197.524 45.9481 195.953 45.6961 194.512 45.1922C193.071 44.6766 191.822 43.9617 190.768 43.0477C189.713 42.1219 188.887 41.0145 188.289 39.7254C187.703 38.4363 187.41 37.0066 187.41 35.4363C187.41 33.8309 187.721 32.3777 188.342 31.077C188.963 29.7645 189.819 28.6453 190.908 27.7195C192.01 26.7938 193.311 26.0789 194.811 25.575C196.311 25.0711 197.94 24.8192 199.697 24.8192C200.447 24.8192 201.192 24.866 201.93 24.9598C202.668 25.0535 203.371 25.1824 204.039 25.3465C204.719 25.5106 205.352 25.7098 205.938 25.9442C206.535 26.1668 207.063 26.4129 207.52 26.6824V25.1883H212.723V43.5574C212.723 45.4441 212.436 47.1141 211.862 48.5672C211.287 50.0203 210.444 51.2391 209.33 52.2234C208.229 53.2195 206.858 53.9695 205.217 54.4734C203.576 54.9891 201.696 55.2469 199.574 55.2469C198.813 55.2469 198.022 55.2117 197.201 55.1414C196.381 55.0828 195.555 54.9891 194.723 54.8602C193.903 54.743 193.088 54.5965 192.279 54.4207C191.483 54.2566 190.715 54.0633 189.977 53.8406L191.91 49.4461ZM192.877 35.3836C192.877 36.2156 193.041 37.0008 193.369 37.7391C193.709 38.4656 194.19 39.1043 194.811 39.6551C195.432 40.1941 196.182 40.6219 197.061 40.9383C197.94 41.243 198.93 41.3953 200.031 41.3953C200.746 41.3953 201.455 41.3309 202.158 41.202C202.873 41.0613 203.553 40.868 204.197 40.6219C204.854 40.3758 205.463 40.077 206.026 39.7254C206.6 39.3738 207.098 38.9813 207.52 38.5477V31.7098C206.992 31.2879 206.436 30.9305 205.85 30.6375C205.264 30.3445 204.666 30.1043 204.057 29.9168C203.447 29.7293 202.832 29.5945 202.211 29.5125C201.59 29.4188 200.987 29.3719 200.401 29.3719C199.205 29.3719 198.139 29.5301 197.201 29.8465C196.276 30.1629 195.49 30.5965 194.846 31.1473C194.213 31.6863 193.727 32.3191 193.387 33.0457C193.047 33.7723 192.877 34.5516 192.877 35.3836Z" fill="#197740"/>
<path d="M218.647 25.1883H223.85V28.1766C224.998 27.3211 226.211 26.5828 227.488 25.9617C228.766 25.3406 230.037 24.866 231.303 24.5379L232.832 29.3016C230.828 29.5008 229.065 29.952 227.541 30.6551C226.029 31.3465 224.799 32.325 223.85 33.5906V45.9305H218.647V25.1883Z" fill="#197740"/>
<path d="M235.733 39.3914C235.733 38.3953 235.949 37.4871 236.383 36.6668C236.817 35.8465 237.467 35.1434 238.334 34.5574C239.201 33.9598 240.279 33.5027 241.569 33.1863C242.869 32.8582 244.381 32.6942 246.104 32.6942C247.381 32.6942 248.723 32.7879 250.129 32.9754C251.547 33.1629 253.006 33.45 254.506 33.8367C254.447 33.1805 254.248 32.577 253.908 32.0262C253.569 31.4637 253.094 30.9832 252.485 30.5848C251.887 30.1746 251.16 29.8582 250.305 29.6356C249.461 29.4129 248.5 29.3016 247.422 29.3016C246.836 29.3016 246.192 29.3367 245.488 29.407C244.785 29.4774 244.059 29.5828 243.309 29.7234C242.559 29.8641 241.815 30.0399 241.076 30.2508C240.35 30.4617 239.67 30.7137 239.037 31.0067L237.455 26.7352C238.24 26.4539 239.078 26.1961 239.969 25.9617C240.871 25.7274 241.791 25.5281 242.729 25.3641C243.666 25.1883 244.604 25.0535 245.541 24.9598C246.479 24.866 247.387 24.8192 248.266 24.8192C252.145 24.8192 255.028 25.8094 256.914 27.7899C258.801 29.7703 259.744 32.8055 259.744 36.8953V45.9305H254.541V43.9793C254.002 44.2957 253.41 44.5945 252.766 44.8758C252.133 45.157 251.442 45.4031 250.692 45.6141C249.942 45.825 249.133 45.9891 248.266 46.1063C247.41 46.2352 246.502 46.2996 245.541 46.2996C243.924 46.2996 242.5 46.1238 241.27 45.7723C240.051 45.4207 239.031 44.9344 238.211 44.3133C237.391 43.6922 236.77 42.9656 236.348 42.1336C235.938 41.2899 235.733 40.3758 235.733 39.3914ZM241.217 39.2156C241.217 39.5555 241.305 39.8836 241.481 40.2C241.656 40.5047 241.938 40.7801 242.324 41.0262C242.711 41.2606 243.203 41.4539 243.801 41.6063C244.41 41.7469 245.143 41.8172 245.998 41.8172C246.912 41.8172 247.797 41.7352 248.653 41.5711C249.508 41.407 250.305 41.1902 251.043 40.9207C251.781 40.6512 252.449 40.3406 253.047 39.9891C253.645 39.6375 254.143 39.2742 254.541 38.8992V37.9852C253.744 37.7625 252.953 37.575 252.168 37.4227C251.395 37.2703 250.651 37.1531 249.936 37.0711C249.233 36.9774 248.565 36.9129 247.932 36.8777C247.311 36.8426 246.766 36.825 246.297 36.825C245.324 36.825 244.516 36.8895 243.871 37.0184C243.227 37.1473 242.705 37.3231 242.307 37.5457C241.908 37.7566 241.627 38.0086 241.463 38.3016C241.299 38.5945 241.217 38.8992 241.217 39.2156Z" fill="#197740"/>
<path d="M267.461 39.5672C268.867 40.4109 270.414 41.032 272.102 41.4305C273.789 41.8289 275.518 42.0281 277.287 42.0281C278.483 42.0281 279.479 41.9461 280.276 41.782C281.072 41.618 281.711 41.407 282.192 41.1492C282.672 40.8914 283.012 40.5984 283.211 40.2703C283.41 39.9422 283.51 39.6082 283.51 39.2684C283.51 38.7762 283.293 38.3543 282.86 38.0027C282.438 37.6512 281.735 37.4754 280.75 37.4754C280.293 37.4754 279.801 37.5047 279.274 37.5633C278.746 37.6219 278.19 37.6863 277.604 37.7566C277.029 37.8152 276.426 37.8738 275.793 37.9324C275.172 37.991 274.539 38.0203 273.895 38.0203C272.488 38.0203 271.287 37.868 270.291 37.5633C269.307 37.2586 268.504 36.8426 267.883 36.3152C267.262 35.7879 266.811 35.1668 266.529 34.452C266.248 33.7254 266.108 32.9461 266.108 32.1141C266.108 31.0594 266.354 30.0867 266.846 29.1961C267.338 28.3055 268.041 27.5379 268.955 26.8934C269.869 26.2371 270.971 25.7274 272.26 25.3641C273.561 25.0008 275.008 24.8192 276.602 24.8192C277.434 24.8192 278.301 24.8719 279.203 24.9774C280.117 25.0711 281.014 25.2 281.893 25.3641C282.772 25.5281 283.615 25.7215 284.424 25.9442C285.233 26.1551 285.947 26.3836 286.569 26.6297L284.934 30.6727C283.61 30.1805 282.285 29.7938 280.961 29.5125C279.649 29.2195 278.295 29.0731 276.901 29.0731C275.928 29.0731 275.102 29.1492 274.422 29.3016C273.754 29.4422 273.209 29.6356 272.787 29.8817C272.365 30.116 272.055 30.3914 271.856 30.7078C271.668 31.0125 271.574 31.3348 271.574 31.6746C271.574 31.9207 271.621 32.1434 271.715 32.3426C271.82 32.5418 271.985 32.7176 272.207 32.8699C272.442 33.0106 272.74 33.1219 273.104 33.2039C273.479 33.2742 273.936 33.3094 274.475 33.3094C274.967 33.3094 275.488 33.2801 276.039 33.2215C276.59 33.1629 277.164 33.1043 277.762 33.0457C278.36 32.9754 278.975 32.9109 279.608 32.8524C280.252 32.7938 280.908 32.7645 281.576 32.7645C282.819 32.7645 283.903 32.9109 284.828 33.2039C285.766 33.4969 286.539 33.907 287.149 34.4344C287.758 34.9617 288.215 35.5828 288.52 36.2977C288.824 37.0125 288.977 37.7918 288.977 38.6356C288.977 39.7254 288.725 40.7391 288.221 41.6766C287.717 42.6141 286.967 43.4285 285.971 44.1199C284.975 44.7996 283.733 45.3328 282.244 45.7195C280.768 46.1063 279.057 46.2996 277.112 46.2996C275.916 46.2996 274.762 46.2234 273.649 46.0711C272.535 45.9305 271.475 45.7371 270.467 45.491C269.459 45.2332 268.51 44.9344 267.619 44.5945C266.74 44.2547 265.938 43.8914 265.211 43.5047L267.461 39.5672Z" fill="#197740"/>
<path d="M294.496 39.5672C295.903 40.4109 297.449 41.032 299.137 41.4305C300.824 41.8289 302.553 42.0281 304.322 42.0281C305.518 42.0281 306.514 41.9461 307.311 41.782C308.108 41.618 308.746 41.407 309.227 41.1492C309.707 40.8914 310.047 40.5984 310.246 40.2703C310.445 39.9422 310.545 39.6082 310.545 39.2684C310.545 38.7762 310.328 38.3543 309.895 38.0027C309.473 37.6512 308.77 37.4754 307.785 37.4754C307.328 37.4754 306.836 37.5047 306.309 37.5633C305.781 37.6219 305.225 37.6863 304.639 37.7566C304.065 37.8152 303.461 37.8738 302.828 37.9324C302.207 37.991 301.574 38.0203 300.93 38.0203C299.524 38.0203 298.322 37.868 297.326 37.5633C296.342 37.2586 295.539 36.8426 294.918 36.3152C294.297 35.7879 293.846 35.1668 293.565 34.452C293.283 33.7254 293.143 32.9461 293.143 32.1141C293.143 31.0594 293.389 30.0867 293.881 29.1961C294.373 28.3055 295.076 27.5379 295.99 26.8934C296.904 26.2371 298.006 25.7274 299.295 25.3641C300.596 25.0008 302.043 24.8192 303.637 24.8192C304.469 24.8192 305.336 24.8719 306.238 24.9774C307.153 25.0711 308.049 25.2 308.928 25.3641C309.807 25.5281 310.651 25.7215 311.459 25.9442C312.268 26.1551 312.983 26.3836 313.604 26.6297L311.969 30.6727C310.645 30.1805 309.32 29.7938 307.996 29.5125C306.684 29.2195 305.33 29.0731 303.936 29.0731C302.963 29.0731 302.137 29.1492 301.457 29.3016C300.789 29.4422 300.244 29.6356 299.822 29.8817C299.401 30.116 299.09 30.3914 298.891 30.7078C298.703 31.0125 298.61 31.3348 298.61 31.6746C298.61 31.9207 298.656 32.1434 298.75 32.3426C298.856 32.5418 299.02 32.7176 299.242 32.8699C299.477 33.0106 299.776 33.1219 300.139 33.2039C300.514 33.2742 300.971 33.3094 301.51 33.3094C302.002 33.3094 302.524 33.2801 303.074 33.2215C303.625 33.1629 304.199 33.1043 304.797 33.0457C305.395 32.9754 306.01 32.9109 306.643 32.8524C307.287 32.7938 307.944 32.7645 308.612 32.7645C309.854 32.7645 310.938 32.9109 311.863 33.2039C312.801 33.4969 313.574 33.907 314.184 34.4344C314.793 34.9617 315.25 35.5828 315.555 36.2977C315.86 37.0125 316.012 37.7918 316.012 38.6356C316.012 39.7254 315.76 40.7391 315.256 41.6766C314.752 42.6141 314.002 43.4285 313.006 44.1199C312.01 44.7996 310.768 45.3328 309.279 45.7195C307.803 46.1063 306.092 46.2996 304.147 46.2996C302.951 46.2996 301.797 46.2234 300.684 46.0711C299.57 45.9305 298.51 45.7371 297.502 45.491C296.494 45.2332 295.545 44.9344 294.654 44.5945C293.776 44.2547 292.973 43.8914 292.246 43.5047L294.496 39.5672Z" fill="#197740"/>
<path d="M24.7081 7.69036C16.9847 5.45656 6.13685 0.740761 2.25325 8.55176C-1.99535 17.1365 5.52365 25.2103 10.4293 31.5613C13.8019 36.3793 12.6047 40.4965 8.13705 45.1977C-1.84935 55.6659 2.64745 69.6819 17.3497 69.9155C23.7591 69.9155 29.7013 66.8787 35.3515 63.8419C46.1847 58.0019 52.8715 62.3089 59.9233 57.2427C64.6537 53.8701 61.3103 45.2561 59.3539 40.0731C57.6851 35.7388 57.5768 30.9591 59.0473 26.5535C60.5073 20.9763 61.4417 11.9536 55.2805 9.16496C52.4773 8.11376 49.2507 9.32556 46.3307 8.37656C42.7099 7.16476 40.8995 2.88696 37.3517 1.47076C30.4459 -1.30324 30.2707 9.15036 24.7081 7.69036Z" fill="#197740"/>
<path d="M37.8481 3.14975C41.2207 4.46375 42.9727 8.47875 46.4183 9.63215C49.1193 10.5373 52.2583 9.35475 54.8571 10.4351C60.6971 12.8879 60.1569 21.6771 58.5801 26.9185C57.3156 31.1419 57.4332 35.6587 58.9159 39.8103C60.7409 44.7743 63.8069 52.9503 59.3101 56.1915C52.5649 61.0679 46.1701 57.1405 35.9501 62.5863C30.5919 65.4187 24.9417 68.2949 18.8973 68.1927C5.02728 67.9883 0.74948 54.7023 9.97667 44.8327C14.1231 40.3797 15.3349 36.4085 12.0937 31.8971C7.71368 25.7505 0.530481 18.1877 4.57468 10.0847C8.22468 2.62415 18.4447 6.96035 25.7593 8.94595C31.0153 10.3767 31.2635 0.550947 37.8481 3.14975Z" fill="#197740"/>
<path d="M38.2715 4.77039C41.4689 6.01139 43.1917 9.73439 46.4475 10.8294C49.0025 11.6908 51.9371 10.6104 54.4337 11.647C60.0255 14.0559 59.4707 22.2903 58.1129 27.2835C56.9817 31.2886 57.1091 35.5445 58.4779 39.4745C60.1715 44.2341 62.9747 51.9575 58.7115 55.0819C52.3313 59.7539 46.2431 56.2207 36.4757 61.2577C31.4095 63.9003 26.0805 66.5429 20.4157 66.4115C7.34871 66.0903 3.26071 53.6803 11.7725 44.3217C15.5977 40.1169 16.7073 36.3501 13.6851 32.1015C9.55331 26.2615 2.99791 19.1075 6.82311 11.4718C10.3271 4.50759 19.9631 8.44959 26.8251 10.2454C31.7307 11.5594 32.0811 2.43439 38.2715 4.77039Z" fill="#197740"/>
<path d="M38.6949 6.50781C41.7317 7.69041 43.4107 11.1068 46.4767 12.1434C48.8857 12.9464 51.6597 11.9828 54.0103 12.9756C59.2663 15.2241 58.9159 22.9329 57.6457 27.6633C56.64 31.4514 56.7669 35.4512 58.0107 39.1681C59.6021 43.7233 62.1133 51.0087 58.0983 54.0017C52.0831 58.4839 46.2723 55.3157 37.0305 59.9731C32.2417 62.3967 27.2339 64.8203 21.8757 64.6597C9.68465 64.3239 5.81565 52.6877 13.5829 43.8693C17.0869 39.9273 18.0797 36.3795 15.3057 32.3645C11.4951 26.8311 5.45065 20.0859 9.11525 12.9172C12.4149 6.39101 21.3793 9.99721 27.8909 11.5594C32.5337 12.7274 32.8841 4.31781 38.6949 6.50781Z" fill="#197740"/>
<path d="M39.1183 8.18688C42.0383 9.23808 43.6005 12.4209 46.5059 13.3845C48.7835 14.1583 51.3677 13.3115 53.5723 14.2459C58.5217 16.3775 58.2881 23.5607 57.1785 28.0283C56.3044 31.612 56.446 35.3683 57.5873 38.8761C59.0473 43.2561 61.2957 50.0451 57.5143 52.9213C51.8495 57.1991 46.3161 54.3813 37.6145 58.7613C33.1177 60.9805 28.4019 63.1413 23.3941 62.9807C12.0499 62.5135 8.37062 51.7095 15.4079 43.4313C18.5907 39.7375 19.4959 36.4087 16.9555 32.6273C13.4369 27.4005 8.00562 21.0641 11.4075 14.3773C14.5173 8.27448 22.8539 11.4573 28.9275 12.9173C33.2929 13.8955 33.7017 6.23048 39.1183 8.18688Z" fill="#197740"/>
<path d="M39.5563 9.86581C42.2573 10.8294 43.8049 13.7203 46.5351 14.6401C48.6667 15.3701 51.0903 14.6401 53.1489 15.5307C57.7771 17.5455 57.6749 24.1885 56.7113 28.3933C55.956 31.7792 56.1071 35.3043 57.1493 38.6133C58.4779 42.7451 60.4489 49.1253 56.9011 51.8847C51.6159 55.8705 46.3307 53.4907 38.1839 57.3305C33.9645 59.3453 29.5699 61.3163 24.9125 61.1119C14.4005 60.6301 10.8527 50.6437 17.2329 42.9349C20.1529 39.4893 20.8829 36.3795 18.5907 32.8463C15.3787 27.9115 10.5023 21.9839 13.6997 15.7789C16.6197 10.0848 24.3139 12.8588 30.0079 14.1145C34.0521 15.0781 34.5193 8.05541 39.5563 9.86581Z" fill="#197740"/>
<path d="M39.9797 11.5448C42.5055 12.4208 44.0239 15.0343 46.5643 15.9249C48.5645 16.5965 50.8129 15.9249 52.7255 16.8301C57.0179 18.7427 57.1055 24.8601 56.2441 28.7875C55.6169 31.9655 55.7773 35.2487 56.7113 38.3505C57.9085 42.2633 59.6313 48.2055 56.3025 50.8335C51.3823 54.7171 46.3745 52.6585 38.7825 56.1771C34.8551 57.9875 30.7671 59.7103 26.4601 59.4913C16.7949 58.9365 13.4223 49.7823 19.1601 42.6283C21.6859 39.4163 22.3867 36.5401 20.3135 33.2405C17.3935 28.6269 13.1157 23.0935 16.0795 17.3557C18.8097 12.0996 25.8907 14.4357 31.1759 15.5599C34.8113 16.2461 35.3369 9.93883 39.9797 11.5448Z" fill="#197740"/>
<path d="M40.4031 13.2238C42.7683 14.0121 44.2283 16.3481 46.5935 17.1511C48.4477 17.7789 50.5209 17.2533 52.3021 18.0709C56.2733 19.8813 56.4339 25.4585 55.7769 29.1231C55.2841 32.0728 55.4538 35.0948 56.2733 37.9707C57.3391 41.6937 58.7699 47.1687 55.7039 49.6507C51.1487 53.3299 46.4183 51.6509 39.3081 54.7899C35.6581 56.3959 31.8913 57.8997 27.9347 57.6369C19.1747 57.0383 15.9189 48.6871 20.8683 42.0879C23.0875 39.1679 23.6715 36.4523 21.8465 33.4009C19.2623 29.0939 15.5101 23.9693 18.2695 18.7133C20.8099 13.8807 27.2485 15.7933 32.1395 16.7569C35.5705 17.4285 36.1107 11.8076 40.4031 13.2238Z" fill="#197740"/>
<path d="M40.8411 14.903C43.0311 15.6038 44.4327 17.6624 46.6811 18.407C48.4039 18.991 50.3019 18.5676 51.9371 19.3414C55.5871 21.035 55.8645 26.0866 55.3681 29.5614C54.9965 32.2945 55.1752 35.0744 55.8937 37.7374C56.8281 41.2414 57.9961 46.2784 55.1637 48.6582C50.9735 52.1476 46.5059 50.8336 39.9359 53.5784C36.5633 55.0384 33.1031 56.2648 29.4969 55.9728C21.5107 55.3158 18.5031 47.7822 22.7517 41.7232C24.6351 39.0222 25.1315 36.5694 23.5401 33.7662C21.2771 29.7512 18.0651 25.0062 20.6201 20.2612C22.9561 15.8812 28.7815 17.4434 33.2491 18.1588C36.3297 18.5968 36.9575 13.6766 40.8411 14.903Z" fill="#197740"/>
<path d="M41.2645 16.582C43.2939 17.1952 44.6371 18.9764 46.6519 19.648C48.2287 20.1882 49.9515 19.8962 51.4407 20.6116C54.7695 22.203 55.1783 26.7144 54.8425 29.868C54.5941 32.382 54.7768 34.9199 55.3827 37.3724C56.2003 40.672 57.1055 45.271 54.5067 47.5924C50.7107 50.819 46.4767 49.8846 40.4907 52.2352C37.528 53.6149 34.2814 54.2753 31.0153 54.1624C23.8613 53.4324 21.0435 46.731 24.5621 41.2268C25.374 40.2067 25.8656 38.9689 25.9746 37.6697C26.0838 36.3706 25.8055 35.0681 25.1753 33.9268C23.2189 30.2184 20.5763 25.926 22.8977 21.6044C25.0585 17.6332 30.1977 18.8304 34.3149 19.356C37.0743 19.7794 37.7751 15.5454 41.2645 16.582Z" fill="#197740"/>
<path d="M41.6879 18.2607C43.5567 18.7717 44.8561 20.2755 46.6811 20.9033C48.1411 21.3997 49.6011 21.2099 51.0611 21.8815C54.0687 23.3415 54.5943 27.3419 54.4191 30.2327C54.2994 32.5305 54.4909 34.8338 54.9885 37.0801C55.6747 40.1607 56.3025 44.3071 53.9373 46.4387C50.4917 49.5339 46.6373 48.9791 41.0455 50.9501C38.3505 52.0935 35.4262 52.5934 32.5045 52.4101C26.1973 51.6217 23.5547 45.7525 26.3725 40.7301C27.0178 39.7731 27.397 38.6616 27.4714 37.5098C27.5459 36.3579 27.3127 35.207 26.7959 34.1747C25.1461 30.7729 23.0583 26.8747 25.1753 23.0495C27.1463 19.5017 31.7015 20.3047 35.3953 20.6551C37.8335 20.9471 38.5927 17.4139 41.6879 18.2607Z" fill="#197740"/>
<path d="M42.1113 19.9399C43.8195 20.3633 45.0313 21.5897 46.7103 22.1591C48.0273 22.3952 49.3253 22.7269 50.5939 23.1519C53.2657 24.5243 53.9227 27.9699 53.9081 30.5979C53.9098 32.6709 54.1103 34.739 54.5067 36.7737C55.0615 39.6937 55.4265 43.3583 53.2949 45.3439C50.2143 48.2639 46.5497 48.0741 41.6149 49.7239C39.1954 50.6392 36.5974 50.9839 34.0229 50.7313C32.8576 50.6381 31.733 50.2609 30.7474 49.6325C29.7616 49.0041 28.945 48.1437 28.3687 47.1267C27.7925 46.1096 27.4742 44.9668 27.4418 43.7983C27.4095 42.6297 27.6638 41.4711 28.1829 40.4237C28.6644 39.5321 28.9345 38.5417 28.9724 37.5292C29.0104 36.5167 28.8152 35.5089 28.4019 34.5837C27.0733 31.4739 25.4819 27.9991 27.4529 24.6411C29.2195 21.5167 33.1469 21.9255 36.4027 22.0861C38.5927 22.1299 39.4103 19.2683 42.1113 19.9399Z" fill="#197740"/>
<path d="M42.5493 21.6189C43.9834 22.1261 45.3831 22.726 46.7395 23.4147C47.9101 23.6506 49.0581 23.9877 50.1705 24.4221C52.5211 25.6923 53.2949 28.5977 53.4409 30.9629C53.5431 32.7441 53.7913 34.6859 54.0687 36.4817C54.4921 39.1535 54.5797 42.3947 52.6963 44.2635C49.9807 46.9791 46.5935 47.1835 42.1259 48.3661C39.987 49.0511 37.7191 49.2359 35.4975 48.9063C34.4947 48.7743 33.5339 48.4204 32.6851 47.8703C31.8364 47.3201 31.1208 46.5877 30.5908 45.7261C30.0609 44.8647 29.7296 43.8959 29.6211 42.8902C29.5126 41.8846 29.6299 40.8674 29.9641 39.9127C30.5993 38.2585 30.5993 36.4278 29.9641 34.7735C28.9567 31.9703 27.9785 28.9335 29.6721 26.0135C31.3657 23.0935 34.5339 23.2687 37.3955 23.3271C39.3519 23.3563 40.2279 21.1225 42.5493 21.6189Z" fill="#197740"/>
<path d="M42.9727 23.2977C44.275 23.6458 45.5449 24.105 46.7687 24.6701C47.7736 24.9131 48.7516 25.2554 49.6887 25.6921C50.6117 26.336 51.3799 27.1768 51.9379 28.1541C52.496 29.1313 52.8299 30.2203 52.9153 31.3423C53.1343 32.8753 53.3825 34.5689 53.5723 36.1749C53.8497 38.6423 53.6745 41.4309 52.1123 43.1829C49.7325 45.6503 46.6227 46.2781 42.6953 47.1103C40.8263 47.5574 38.8812 47.5822 37.0013 47.1833C35.2821 46.8505 33.764 45.8522 32.777 44.406C31.7899 42.9597 31.414 41.1821 31.7307 39.4599C32.031 38.0091 31.9811 36.5075 31.5847 35.0799C30.8985 32.5687 30.4605 29.9261 31.9351 27.5171C33.4097 25.1081 36.1107 24.8599 38.5051 24.6263C40.0965 24.4803 41.0601 22.9765 42.9727 23.2977Z" fill="#197740"/>
<path d="M43.4107 24.977C44.5772 25.1541 45.7191 25.4677 46.8125 25.9114C47.6585 26.1786 48.4754 26.5308 49.2507 26.9626C50.8771 28.084 52.0194 29.7791 52.4481 31.7076C52.7995 33.0716 53.0291 34.4641 53.1343 35.8686C53.3956 38.0897 52.7831 40.3253 51.4261 42.1028C49.2648 44.346 46.3188 45.6646 43.2063 45.782C41.616 46.0114 39.9947 45.8816 38.4613 45.4024C37.0838 44.9774 35.8721 44.1354 34.9935 42.9927C34.1148 41.85 33.6125 40.4627 33.5557 39.0222C33.5256 37.7801 33.4133 36.5412 33.2199 35.3138C32.7216 33.1367 33.0823 30.8513 34.2273 28.9336C34.8608 28.1041 35.6556 27.4113 36.5638 26.8969C37.4721 26.3826 38.4751 26.0573 39.5125 25.9406C40.8557 25.6778 41.9507 24.831 43.4107 24.977Z" fill="#197740"/>
<path d="M43.8341 44.4971C48.7608 44.4971 52.7547 40.5033 52.7547 35.5765C52.7547 30.6497 48.7608 26.6559 43.8341 26.6559C38.9073 26.6559 34.9135 30.6497 34.9135 35.5765C34.9135 40.5033 38.9073 44.4971 43.8341 44.4971Z" fill="#197740"/>
<path d="M72.133 18.4559H77.7053V41.0438H93.6838V45.9305H72.133V18.4559Z" stroke="black" stroke-width="0.3" stroke-miterlimit="10"/>
<path d="M97.4631 35.4891C97.4631 34.0828 97.7502 32.741 98.3244 31.4637C98.8986 30.1746 99.7248 29.0379 100.803 28.0535C101.881 27.0692 103.199 26.284 104.758 25.6981C106.328 25.1121 108.11 24.8192 110.102 24.8192C112.082 24.8192 113.863 25.118 115.446 25.7156C117.039 26.3016 118.387 27.1102 119.488 28.1414C120.602 29.1727 121.451 30.3856 122.037 31.7801C122.635 33.1746 122.934 34.6688 122.934 36.2625C122.934 36.4617 122.928 36.6785 122.916 36.9129C122.916 37.1356 122.904 37.3406 122.881 37.5281H103.264C103.487 38.1492 103.844 38.7176 104.336 39.2332C104.84 39.7488 105.467 40.1941 106.217 40.5691C106.967 40.9441 107.834 41.2371 108.819 41.4481C109.803 41.6473 110.893 41.7469 112.088 41.7469C113.283 41.7469 114.473 41.6238 115.656 41.3777C116.84 41.1199 117.971 40.7977 119.049 40.4109L120.807 44.3836C120.127 44.7 119.436 44.9813 118.733 45.2274C118.041 45.4617 117.315 45.6609 116.553 45.825C115.803 45.9774 115.012 46.0945 114.18 46.1766C113.36 46.2586 112.492 46.2996 111.578 46.2996C109.246 46.2996 107.201 46.0184 105.444 45.4559C103.686 44.8934 102.215 44.1258 101.031 43.1531C99.8479 42.1805 98.9572 41.0379 98.3596 39.7254C97.7619 38.4129 97.4631 37.0008 97.4631 35.4891ZM117.414 33.4676C117.227 32.8934 116.934 32.3602 116.535 31.868C116.149 31.3641 115.662 30.9305 115.076 30.5672C114.49 30.1922 113.811 29.8992 113.037 29.6883C112.264 29.4774 111.414 29.3719 110.488 29.3719C109.504 29.3719 108.608 29.4832 107.799 29.7059C106.99 29.9285 106.281 30.2274 105.672 30.6024C105.063 30.9774 104.553 31.4109 104.143 31.9031C103.744 32.3953 103.451 32.9168 103.264 33.4676H117.414Z" stroke="black" stroke-width="0.3" stroke-miterlimit="10"/>
<path d="M127.293 35.5594C127.293 34.0711 127.592 32.6766 128.19 31.3758C128.799 30.075 129.66 28.9383 130.774 27.9656C131.899 26.993 133.252 26.2254 134.834 25.6629C136.428 25.1004 138.215 24.8192 140.196 24.8192C142.176 24.8192 143.957 25.1004 145.539 25.6629C147.133 26.2254 148.487 26.993 149.6 27.9656C150.725 28.9383 151.586 30.075 152.184 31.3758C152.793 32.6766 153.098 34.0711 153.098 35.5594C153.098 37.0477 152.793 38.4422 152.184 39.743C151.586 41.0438 150.725 42.1805 149.6 43.1531C148.487 44.1258 147.133 44.8934 145.539 45.4559C143.957 46.0184 142.176 46.2996 140.196 46.2996C138.215 46.2996 136.428 46.0184 134.834 45.4559C133.252 44.8934 131.899 44.1258 130.774 43.1531C129.66 42.1805 128.799 41.0438 128.19 39.743C127.592 38.4422 127.293 37.0477 127.293 35.5594ZM132.76 35.5594C132.76 36.3914 132.924 37.1824 133.252 37.9324C133.592 38.6707 134.078 39.327 134.711 39.9012C135.356 40.4637 136.135 40.9149 137.049 41.2547C137.975 41.5828 139.024 41.7469 140.196 41.7469C141.367 41.7469 142.41 41.5828 143.324 41.2547C144.25 40.9149 145.029 40.4637 145.662 39.9012C146.307 39.327 146.793 38.6707 147.121 37.9324C147.461 37.1824 147.631 36.3914 147.631 35.5594C147.631 34.7274 147.461 33.9363 147.121 33.1863C146.793 32.4363 146.307 31.7801 145.662 31.2176C145.029 30.6434 144.25 30.1922 143.324 29.8641C142.41 29.5242 141.367 29.3543 140.196 29.3543C139.024 29.3543 137.975 29.5242 137.049 29.8641C136.135 30.1922 135.356 30.6434 134.711 31.2176C134.078 31.7801 133.592 32.4363 133.252 33.1863C132.924 33.9363 132.76 34.7274 132.76 35.5594Z" stroke="black" stroke-width="0.3" stroke-miterlimit="10"/>
<path d="M158.354 25.1883H163.557V26.9461C164.94 26.1609 166.258 25.6102 167.512 25.2938C168.778 24.9774 170.014 24.8192 171.221 24.8192C172.803 24.8192 174.268 25.0535 175.615 25.5223C176.963 25.9793 178.129 26.6649 179.113 27.5789C180.098 28.493 180.865 29.6356 181.416 31.0067C181.979 32.366 182.26 33.9422 182.26 35.7352V45.9305H177.074V36.5789C177.074 35.4422 176.91 34.4285 176.582 33.5379C176.266 32.6356 175.803 31.8797 175.194 31.2703C174.596 30.6492 173.863 30.1805 172.996 29.8641C172.141 29.5359 171.18 29.3719 170.113 29.3719C169.551 29.3719 168.971 29.4305 168.373 29.5477C167.787 29.6649 167.207 29.8348 166.633 30.0574C166.071 30.2684 165.526 30.5379 164.998 30.866C164.471 31.1824 163.99 31.5457 163.557 31.9559V45.9305H158.354V25.1883Z" stroke="black" stroke-width="0.3" stroke-miterlimit="10"/>
<path d="M191.91 49.4461C192.567 49.6805 193.235 49.8738 193.914 50.0262C194.594 50.1902 195.25 50.3191 195.883 50.4129C196.528 50.5184 197.143 50.5887 197.729 50.6238C198.315 50.6707 198.836 50.6941 199.293 50.6941C200.676 50.6941 201.877 50.5242 202.897 50.1844C203.928 49.8563 204.783 49.4109 205.463 48.8484C206.154 48.2859 206.67 47.6297 207.01 46.8797C207.35 46.1414 207.52 45.3563 207.52 44.5242V43.6277C207.074 43.9324 206.553 44.2254 205.955 44.5066C205.358 44.7879 204.701 45.034 203.987 45.2449C203.272 45.4559 202.51 45.6258 201.701 45.7547C200.904 45.8836 200.078 45.9481 199.223 45.9481C197.524 45.9481 195.953 45.6961 194.512 45.1922C193.071 44.6766 191.822 43.9617 190.768 43.0477C189.713 42.1219 188.887 41.0145 188.289 39.7254C187.703 38.4363 187.41 37.0066 187.41 35.4363C187.41 33.8309 187.721 32.3777 188.342 31.077C188.963 29.7645 189.819 28.6453 190.908 27.7195C192.01 26.7938 193.311 26.0789 194.811 25.575C196.311 25.0711 197.94 24.8192 199.697 24.8192C200.447 24.8192 201.192 24.866 201.93 24.9598C202.668 25.0535 203.371 25.1824 204.039 25.3465C204.719 25.5106 205.352 25.7098 205.938 25.9442C206.535 26.1668 207.063 26.4129 207.52 26.6824V25.1883H212.723V43.5574C212.723 45.4441 212.436 47.1141 211.862 48.5672C211.287 50.0203 210.444 51.2391 209.33 52.2234C208.229 53.2195 206.858 53.9695 205.217 54.4734C203.576 54.9891 201.696 55.2469 199.574 55.2469C198.813 55.2469 198.022 55.2117 197.201 55.1414C196.381 55.0828 195.555 54.9891 194.723 54.8602C193.903 54.743 193.088 54.5965 192.279 54.4207C191.483 54.2566 190.715 54.0633 189.977 53.8406L191.91 49.4461ZM192.877 35.3836C192.877 36.2156 193.041 37.0008 193.369 37.7391C193.709 38.4656 194.19 39.1043 194.811 39.6551C195.432 40.1941 196.182 40.6219 197.061 40.9383C197.94 41.243 198.93 41.3953 200.031 41.3953C200.746 41.3953 201.455 41.3309 202.158 41.202C202.873 41.0613 203.553 40.868 204.197 40.6219C204.854 40.3758 205.463 40.077 206.026 39.7254C206.6 39.3738 207.098 38.9813 207.52 38.5477V31.7098C206.992 31.2879 206.436 30.9305 205.85 30.6375C205.264 30.3445 204.666 30.1043 204.057 29.9168C203.447 29.7293 202.832 29.5945 202.211 29.5125C201.59 29.4188 200.987 29.3719 200.401 29.3719C199.205 29.3719 198.139 29.5301 197.201 29.8465C196.276 30.1629 195.49 30.5965 194.846 31.1473C194.213 31.6863 193.727 32.3191 193.387 33.0457C193.047 33.7723 192.877 34.5516 192.877 35.3836Z" stroke="black" stroke-width="0.3" stroke-miterlimit="10"/>
<path d="M218.647 25.1883H223.85V28.1766C224.998 27.3211 226.211 26.5828 227.488 25.9617C228.766 25.3406 230.037 24.866 231.303 24.5379L232.832 29.3016C230.828 29.5008 229.065 29.952 227.541 30.6551C226.029 31.3465 224.799 32.325 223.85 33.5906V45.9305H218.647V25.1883Z" stroke="black" stroke-width="0.3" stroke-miterlimit="10"/>
<path d="M235.733 39.3914C235.733 38.3953 235.949 37.4871 236.383 36.6668C236.817 35.8465 237.467 35.1434 238.334 34.5574C239.201 33.9598 240.279 33.5027 241.569 33.1863C242.869 32.8582 244.381 32.6942 246.104 32.6942C247.381 32.6942 248.723 32.7879 250.129 32.9754C251.547 33.1629 253.006 33.45 254.506 33.8367C254.447 33.1805 254.248 32.577 253.908 32.0262C253.569 31.4637 253.094 30.9832 252.485 30.5848C251.887 30.1746 251.16 29.8582 250.305 29.6356C249.461 29.4129 248.5 29.3016 247.422 29.3016C246.836 29.3016 246.192 29.3367 245.488 29.407C244.785 29.4774 244.059 29.5828 243.309 29.7234C242.559 29.8641 241.815 30.0399 241.076 30.2508C240.35 30.4617 239.67 30.7137 239.037 31.0067L237.455 26.7352C238.24 26.4539 239.078 26.1961 239.969 25.9617C240.871 25.7274 241.791 25.5281 242.729 25.3641C243.666 25.1883 244.604 25.0535 245.541 24.9598C246.479 24.866 247.387 24.8192 248.266 24.8192C252.145 24.8192 255.028 25.8094 256.914 27.7899C258.801 29.7703 259.744 32.8055 259.744 36.8953V45.9305H254.541V43.9793C254.002 44.2957 253.41 44.5945 252.766 44.8758C252.133 45.157 251.442 45.4031 250.692 45.6141C249.942 45.825 249.133 45.9891 248.266 46.1063C247.41 46.2352 246.502 46.2996 245.541 46.2996C243.924 46.2996 242.5 46.1238 241.27 45.7723C240.051 45.4207 239.031 44.9344 238.211 44.3133C237.391 43.6922 236.77 42.9656 236.348 42.1336C235.938 41.2899 235.733 40.3758 235.733 39.3914ZM241.217 39.2156C241.217 39.5555 241.305 39.8836 241.481 40.2C241.656 40.5047 241.938 40.7801 242.324 41.0262C242.711 41.2606 243.203 41.4539 243.801 41.6063C244.41 41.7469 245.143 41.8172 245.998 41.8172C246.912 41.8172 247.797 41.7352 248.653 41.5711C249.508 41.407 250.305 41.1902 251.043 40.9207C251.781 40.6512 252.449 40.3406 253.047 39.9891C253.645 39.6375 254.143 39.2742 254.541 38.8992V37.9852C253.744 37.7625 252.953 37.575 252.168 37.4227C251.395 37.2703 250.651 37.1531 249.936 37.0711C249.233 36.9774 248.565 36.9129 247.932 36.8777C247.311 36.8426 246.766 36.825 246.297 36.825C245.324 36.825 244.516 36.8895 243.871 37.0184C243.227 37.1473 242.705 37.3231 242.307 37.5457C241.908 37.7566 241.627 38.0086 241.463 38.3016C241.299 38.5945 241.217 38.8992 241.217 39.2156Z" stroke="black" stroke-width="0.3" stroke-miterlimit="10"/>
<path d="M267.461 39.5672C268.867 40.4109 270.414 41.032 272.102 41.4305C273.789 41.8289 275.518 42.0281 277.287 42.0281C278.483 42.0281 279.479 41.9461 280.276 41.782C281.072 41.618 281.711 41.407 282.192 41.1492C282.672 40.8914 283.012 40.5984 283.211 40.2703C283.41 39.9422 283.51 39.6082 283.51 39.2684C283.51 38.7762 283.293 38.3543 282.86 38.0027C282.438 37.6512 281.735 37.4754 280.75 37.4754C280.293 37.4754 279.801 37.5047 279.274 37.5633C278.746 37.6219 278.19 37.6863 277.604 37.7566C277.029 37.8152 276.426 37.8738 275.793 37.9324C275.172 37.991 274.539 38.0203 273.895 38.0203C272.488 38.0203 271.287 37.868 270.291 37.5633C269.307 37.2586 268.504 36.8426 267.883 36.3152C267.262 35.7879 266.811 35.1668 266.529 34.452C266.248 33.7254 266.108 32.9461 266.108 32.1141C266.108 31.0594 266.354 30.0867 266.846 29.1961C267.338 28.3055 268.041 27.5379 268.955 26.8934C269.869 26.2371 270.971 25.7274 272.26 25.3641C273.561 25.0008 275.008 24.8192 276.602 24.8192C277.434 24.8192 278.301 24.8719 279.203 24.9774C280.117 25.0711 281.014 25.2 281.893 25.3641C282.772 25.5281 283.615 25.7215 284.424 25.9442C285.233 26.1551 285.947 26.3836 286.569 26.6297L284.934 30.6727C283.61 30.1805 282.285 29.7938 280.961 29.5125C279.649 29.2195 278.295 29.0731 276.901 29.0731C275.928 29.0731 275.102 29.1492 274.422 29.3016C273.754 29.4422 273.209 29.6356 272.787 29.8817C272.365 30.116 272.055 30.3914 271.856 30.7078C271.668 31.0125 271.574 31.3348 271.574 31.6746C271.574 31.9207 271.621 32.1434 271.715 32.3426C271.82 32.5418 271.985 32.7176 272.207 32.8699C272.442 33.0106 272.74 33.1219 273.104 33.2039C273.479 33.2742 273.936 33.3094 274.475 33.3094C274.967 33.3094 275.488 33.2801 276.039 33.2215C276.59 33.1629 277.164 33.1043 277.762 33.0457C278.36 32.9754 278.975 32.9109 279.608 32.8524C280.252 32.7938 280.908 32.7645 281.576 32.7645C282.819 32.7645 283.903 32.9109 284.828 33.2039C285.766 33.4969 286.539 33.907 287.149 34.4344C287.758 34.9617 288.215 35.5828 288.52 36.2977C288.824 37.0125 288.977 37.7918 288.977 38.6356C288.977 39.7254 288.725 40.7391 288.221 41.6766C287.717 42.6141 286.967 43.4285 285.971 44.1199C284.975 44.7996 283.733 45.3328 282.244 45.7195C280.768 46.1063 279.057 46.2996 277.112 46.2996C275.916 46.2996 274.762 46.2234 273.649 46.0711C272.535 45.9305 271.475 45.7371 270.467 45.491C269.459 45.2332 268.51 44.9344 267.619 44.5945C266.74 44.2547 265.938 43.8914 265.211 43.5047L267.461 39.5672Z" stroke="black" stroke-width="0.3" stroke-miterlimit="10"/>
<path d="M294.496 39.5672C295.903 40.4109 297.449 41.032 299.137 41.4305C300.824 41.8289 302.553 42.0281 304.322 42.0281C305.518 42.0281 306.514 41.9461 307.311 41.782C308.108 41.618 308.746 41.407 309.227 41.1492C309.707 40.8914 310.047 40.5984 310.246 40.2703C310.445 39.9422 310.545 39.6082 310.545 39.2684C310.545 38.7762 310.328 38.3543 309.895 38.0027C309.473 37.6512 308.77 37.4754 307.785 37.4754C307.328 37.4754 306.836 37.5047 306.309 37.5633C305.781 37.6219 305.225 37.6863 304.639 37.7566C304.065 37.8152 303.461 37.8738 302.828 37.9324C302.207 37.991 301.574 38.0203 300.93 38.0203C299.524 38.0203 298.322 37.868 297.326 37.5633C296.342 37.2586 295.539 36.8426 294.918 36.3152C294.297 35.7879 293.846 35.1668 293.565 34.452C293.283 33.7254 293.143 32.9461 293.143 32.1141C293.143 31.0594 293.389 30.0867 293.881 29.1961C294.373 28.3055 295.076 27.5379 295.99 26.8934C296.904 26.2371 298.006 25.7274 299.295 25.3641C300.596 25.0008 302.043 24.8192 303.637 24.8192C304.469 24.8192 305.336 24.8719 306.238 24.9774C307.153 25.0711 308.049 25.2 308.928 25.3641C309.807 25.5281 310.651 25.7215 311.459 25.9442C312.268 26.1551 312.983 26.3836 313.604 26.6297L311.969 30.6727C310.645 30.1805 309.32 29.7938 307.996 29.5125C306.684 29.2195 305.33 29.0731 303.936 29.0731C302.963 29.0731 302.137 29.1492 301.457 29.3016C300.789 29.4422 300.244 29.6356 299.822 29.8817C299.401 30.116 299.09 30.3914 298.891 30.7078C298.703 31.0125 298.61 31.3348 298.61 31.6746C298.61 31.9207 298.656 32.1434 298.75 32.3426C298.856 32.5418 299.02 32.7176 299.242 32.8699C299.477 33.0106 299.776 33.1219 300.139 33.2039C300.514 33.2742 300.971 33.3094 301.51 33.3094C302.002 33.3094 302.524 33.2801 303.074 33.2215C303.625 33.1629 304.199 33.1043 304.797 33.0457C305.395 32.9754 306.01 32.9109 306.643 32.8524C307.287 32.7938 307.944 32.7645 308.612 32.7645C309.854 32.7645 310.938 32.9109 311.863 33.2039C312.801 33.4969 313.574 33.907 314.184 34.4344C314.793 34.9617 315.25 35.5828 315.555 36.2977C315.86 37.0125 316.012 37.7918 316.012 38.6356C316.012 39.7254 315.76 40.7391 315.256 41.6766C314.752 42.6141 314.002 43.4285 313.006 44.1199C312.01 44.7996 310.768 45.3328 309.279 45.7195C307.803 46.1063 306.092 46.2996 304.147 46.2996C302.951 46.2996 301.797 46.2234 300.684 46.0711C299.57 45.9305 298.51 45.7371 297.502 45.491C296.494 45.2332 295.545 44.9344 294.654 44.5945C293.776 44.2547 292.973 43.8914 292.246 43.5047L294.496 39.5672Z" stroke="black" stroke-width="0.3" stroke-miterlimit="10"/>
<path d="M24.7081 7.69036C16.9847 5.45656 6.13685 0.740761 2.25325 8.55176C-1.99535 17.1365 5.52365 25.2103 10.4293 31.5613C13.8019 36.3793 12.6047 40.4965 8.13705 45.1977C-1.84935 55.6659 2.64745 69.6819 17.3497 69.9155C23.7591 69.9155 29.7013 66.8787 35.3515 63.8419C46.1847 58.0019 52.8715 62.3089 59.9233 57.2427C64.6537 53.8701 61.3103 45.2561 59.3539 40.0731C57.6851 35.7388 57.5768 30.9591 59.0473 26.5535C60.5073 20.9763 61.4417 11.9536 55.2805 9.16496C52.4773 8.11376 49.2507 9.32556 46.3307 8.37656C42.7099 7.16476 40.8995 2.88696 37.3517 1.47076C30.4459 -1.30324 30.2707 9.15036 24.7081 7.69036Z" stroke="black" stroke-width="0.3" stroke-miterlimit="10"/>
<path d="M37.8481 3.14975C41.2207 4.46375 42.9727 8.47875 46.4183 9.63215C49.1193 10.5373 52.2583 9.35475 54.8571 10.4351C60.6971 12.8879 60.1569 21.6771 58.5801 26.9185C57.3156 31.1419 57.4332 35.6587 58.9159 39.8103C60.7409 44.7743 63.8069 52.9503 59.3101 56.1915C52.5649 61.0679 46.1701 57.1405 35.9501 62.5863C30.5919 65.4187 24.9417 68.2949 18.8973 68.1927C5.02728 67.9883 0.74948 54.7023 9.97667 44.8327C14.1231 40.3797 15.3349 36.4085 12.0937 31.8971C7.71368 25.7505 0.530481 18.1877 4.57468 10.0847C8.22468 2.62415 18.4447 6.96035 25.7593 8.94595C31.0153 10.3767 31.2635 0.550947 37.8481 3.14975Z" stroke="black" stroke-width="0.3" stroke-miterlimit="10"/>
<path d="M38.2715 4.77039C41.4689 6.01139 43.1917 9.73439 46.4475 10.8294C49.0025 11.6908 51.9371 10.6104 54.4337 11.647C60.0255 14.0559 59.4707 22.2903 58.1129 27.2835C56.9817 31.2886 57.1091 35.5445 58.4779 39.4745C60.1715 44.2341 62.9747 51.9575 58.7115 55.0819C52.3313 59.7539 46.2431 56.2207 36.4757 61.2577C31.4095 63.9003 26.0805 66.5429 20.4157 66.4115C7.34871 66.0903 3.26071 53.6803 11.7725 44.3217C15.5977 40.1169 16.7073 36.3501 13.6851 32.1015C9.55331 26.2615 2.99791 19.1075 6.82311 11.4718C10.3271 4.50759 19.9631 8.44959 26.8251 10.2454C31.7307 11.5594 32.0811 2.43439 38.2715 4.77039Z" stroke="black" stroke-width="0.3" stroke-miterlimit="10"/>
<path d="M38.6949 6.50781C41.7317 7.69041 43.4107 11.1068 46.4767 12.1434C48.8857 12.9464 51.6597 11.9828 54.0103 12.9756C59.2663 15.2241 58.9159 22.9329 57.6457 27.6633C56.64 31.4514 56.7669 35.4512 58.0107 39.1681C59.6021 43.7233 62.1133 51.0087 58.0983 54.0017C52.0831 58.4839 46.2723 55.3157 37.0305 59.9731C32.2417 62.3967 27.2339 64.8203 21.8757 64.6597C9.68465 64.3239 5.81565 52.6877 13.5829 43.8693C17.0869 39.9273 18.0797 36.3795 15.3057 32.3645C11.4951 26.8311 5.45065 20.0859 9.11525 12.9172C12.4149 6.39101 21.3793 9.99721 27.8909 11.5594C32.5337 12.7274 32.8841 4.31781 38.6949 6.50781Z" stroke="black" stroke-width="0.3" stroke-miterlimit="10"/>
<path d="M39.1183 8.18688C42.0383 9.23808 43.6005 12.4209 46.5059 13.3845C48.7835 14.1583 51.3677 13.3115 53.5723 14.2459C58.5217 16.3775 58.2881 23.5607 57.1785 28.0283C56.3044 31.612 56.446 35.3683 57.5873 38.8761C59.0473 43.2561 61.2957 50.0451 57.5143 52.9213C51.8495 57.1991 46.3161 54.3813 37.6145 58.7613C33.1177 60.9805 28.4019 63.1413 23.3941 62.9807C12.0499 62.5135 8.37062 51.7095 15.4079 43.4313C18.5907 39.7375 19.4959 36.4087 16.9555 32.6273C13.4369 27.4005 8.00562 21.0641 11.4075 14.3773C14.5173 8.27448 22.8539 11.4573 28.9275 12.9173C33.2929 13.8955 33.7017 6.23048 39.1183 8.18688Z" stroke="black" stroke-width="0.3" stroke-miterlimit="10"/>
<path d="M39.5563 9.86581C42.2573 10.8294 43.8049 13.7203 46.5351 14.6401C48.6667 15.3701 51.0903 14.6401 53.1489 15.5307C57.7771 17.5455 57.6749 24.1885 56.7113 28.3933C55.956 31.7792 56.1071 35.3043 57.1493 38.6133C58.4779 42.7451 60.4489 49.1253 56.9011 51.8847C51.6159 55.8705 46.3307 53.4907 38.1839 57.3305C33.9645 59.3453 29.5699 61.3163 24.9125 61.1119C14.4005 60.6301 10.8527 50.6437 17.2329 42.9349C20.1529 39.4893 20.8829 36.3795 18.5907 32.8463C15.3787 27.9115 10.5023 21.9839 13.6997 15.7789C16.6197 10.0848 24.3139 12.8588 30.0079 14.1145C34.0521 15.0781 34.5193 8.05541 39.5563 9.86581Z" stroke="black" stroke-width="0.3" stroke-miterlimit="10"/>
<path d="M39.9797 11.5448C42.5055 12.4208 44.0239 15.0343 46.5643 15.9249C48.5645 16.5965 50.8129 15.9249 52.7255 16.8301C57.0179 18.7427 57.1055 24.8601 56.2441 28.7875C55.6169 31.9655 55.7773 35.2487 56.7113 38.3505C57.9085 42.2633 59.6313 48.2055 56.3025 50.8335C51.3823 54.7171 46.3745 52.6585 38.7825 56.1771C34.8551 57.9875 30.7671 59.7103 26.4601 59.4913C16.7949 58.9365 13.4223 49.7823 19.1601 42.6283C21.6859 39.4163 22.3867 36.5401 20.3135 33.2405C17.3935 28.6269 13.1157 23.0935 16.0795 17.3557C18.8097 12.0996 25.8907 14.4357 31.1759 15.5599C34.8113 16.2461 35.3369 9.93883 39.9797 11.5448Z" stroke="black" stroke-width="0.3" stroke-miterlimit="10"/>
<path d="M40.4031 13.2238C42.7683 14.0121 44.2283 16.3481 46.5935 17.1511C48.4477 17.7789 50.5209 17.2533 52.3021 18.0709C56.2733 19.8813 56.4339 25.4585 55.7769 29.1231C55.2841 32.0728 55.4538 35.0948 56.2733 37.9707C57.3391 41.6937 58.7699 47.1687 55.7039 49.6507C51.1487 53.3299 46.4183 51.6509 39.3081 54.7899C35.6581 56.3959 31.8913 57.8997 27.9347 57.6369C19.1747 57.0383 15.9189 48.6871 20.8683 42.0879C23.0875 39.1679 23.6715 36.4523 21.8465 33.4009C19.2623 29.0939 15.5101 23.9693 18.2695 18.7133C20.8099 13.8807 27.2485 15.7933 32.1395 16.7569C35.5705 17.4285 36.1107 11.8076 40.4031 13.2238Z" stroke="black" stroke-width="0.3" stroke-miterlimit="10"/>
<path d="M40.8411 14.903C43.0311 15.6038 44.4327 17.6624 46.6811 18.407C48.4039 18.991 50.3019 18.5676 51.9371 19.3414C55.5871 21.035 55.8645 26.0866 55.3681 29.5614C54.9965 32.2945 55.1752 35.0744 55.8937 37.7374C56.8281 41.2414 57.9961 46.2784 55.1637 48.6582C50.9735 52.1476 46.5059 50.8336 39.9359 53.5784C36.5633 55.0384 33.1031 56.2648 29.4969 55.9728C21.5107 55.3158 18.5031 47.7822 22.7517 41.7232C24.6351 39.0222 25.1315 36.5694 23.5401 33.7662C21.2771 29.7512 18.0651 25.0062 20.6201 20.2612C22.9561 15.8812 28.7815 17.4434 33.2491 18.1588C36.3297 18.5968 36.9575 13.6766 40.8411 14.903Z" stroke="black" stroke-width="0.3" stroke-miterlimit="10"/>
<path d="M41.2645 16.582C43.2939 17.1952 44.6371 18.9764 46.6519 19.648C48.2287 20.1882 49.9515 19.8962 51.4407 20.6116C54.7695 22.203 55.1783 26.7144 54.8425 29.868C54.5941 32.382 54.7768 34.9199 55.3827 37.3724C56.2003 40.672 57.1055 45.271 54.5067 47.5924C50.7107 50.819 46.4767 49.8846 40.4907 52.2352C37.528 53.6149 34.2814 54.2753 31.0153 54.1624C23.8613 53.4324 21.0435 46.731 24.5621 41.2268C25.374 40.2067 25.8656 38.9689 25.9746 37.6697C26.0838 36.3706 25.8055 35.0681 25.1753 33.9268C23.2189 30.2184 20.5763 25.926 22.8977 21.6044C25.0585 17.6332 30.1977 18.8304 34.3149 19.356C37.0743 19.7794 37.7751 15.5454 41.2645 16.582Z" stroke="black" stroke-width="0.3" stroke-miterlimit="10"/>
<path d="M41.6879 18.2607C43.5567 18.7717 44.8561 20.2755 46.6811 20.9033C48.1411 21.3997 49.6011 21.2099 51.0611 21.8815C54.0687 23.3415 54.5943 27.3419 54.4191 30.2327C54.2994 32.5305 54.4909 34.8338 54.9885 37.0801C55.6747 40.1607 56.3025 44.3071 53.9373 46.4387C50.4917 49.5339 46.6373 48.9791 41.0455 50.9501C38.3505 52.0935 35.4262 52.5934 32.5045 52.4101C26.1973 51.6217 23.5547 45.7525 26.3725 40.7301C27.0178 39.7731 27.397 38.6616 27.4714 37.5098C27.5459 36.3579 27.3127 35.207 26.7959 34.1747C25.1461 30.7729 23.0583 26.8747 25.1753 23.0495C27.1463 19.5017 31.7015 20.3047 35.3953 20.6551C37.8335 20.9471 38.5927 17.4139 41.6879 18.2607Z" stroke="black" stroke-width="0.3" stroke-miterlimit="10"/>
<path d="M42.1113 19.9399C43.8195 20.3633 45.0313 21.5897 46.7103 22.1591C48.0273 22.3952 49.3253 22.7269 50.5939 23.1519C53.2657 24.5243 53.9227 27.9699 53.9081 30.5979C53.9098 32.6709 54.1103 34.739 54.5067 36.7737C55.0615 39.6937 55.4265 43.3583 53.2949 45.3439C50.2143 48.2639 46.5497 48.0741 41.6149 49.7239C39.1954 50.6392 36.5974 50.9839 34.0229 50.7313C32.8576 50.6381 31.733 50.2609 30.7474 49.6325C29.7616 49.0041 28.945 48.1437 28.3687 47.1267C27.7925 46.1096 27.4742 44.9668 27.4418 43.7983C27.4095 42.6297 27.6638 41.4711 28.1829 40.4237C28.6644 39.5321 28.9345 38.5417 28.9724 37.5292C29.0104 36.5167 28.8152 35.5089 28.4019 34.5837C27.0733 31.4739 25.4819 27.9991 27.4529 24.6411C29.2195 21.5167 33.1469 21.9255 36.4027 22.0861C38.5927 22.1299 39.4103 19.2683 42.1113 19.9399Z" stroke="black" stroke-width="0.3" stroke-miterlimit="10"/>
<path d="M42.5493 21.6189C43.9834 22.1261 45.3831 22.726 46.7395 23.4147C47.9101 23.6506 49.0581 23.9877 50.1705 24.4221C52.5211 25.6923 53.2949 28.5977 53.4409 30.9629C53.5431 32.7441 53.7913 34.6859 54.0687 36.4817C54.4921 39.1535 54.5797 42.3947 52.6963 44.2635C49.9807 46.9791 46.5935 47.1835 42.1259 48.3661C39.987 49.0511 37.7191 49.2359 35.4975 48.9063C34.4947 48.7743 33.5339 48.4204 32.6851 47.8703C31.8364 47.3201 31.1208 46.5877 30.5908 45.7261C30.0609 44.8647 29.7296 43.8959 29.6211 42.8902C29.5126 41.8846 29.6299 40.8674 29.9641 39.9127C30.5993 38.2585 30.5993 36.4278 29.9641 34.7735C28.9567 31.9703 27.9785 28.9335 29.6721 26.0135C31.3657 23.0935 34.5339 23.2687 37.3955 23.3271C39.3519 23.3563 40.2279 21.1225 42.5493 21.6189Z" stroke="black" stroke-width="0.3" stroke-miterlimit="10"/>
<path d="M42.9727 23.2977C44.275 23.6458 45.5449 24.105 46.7687 24.6701C47.7736 24.9131 48.7516 25.2554 49.6887 25.6921C50.6117 26.336 51.3799 27.1768 51.9379 28.1541C52.496 29.1313 52.8299 30.2203 52.9153 31.3423C53.1343 32.8753 53.3825 34.5689 53.5723 36.1749C53.8497 38.6423 53.6745 41.4309 52.1123 43.1829C49.7325 45.6503 46.6227 46.2781 42.6953 47.1103C40.8263 47.5574 38.8812 47.5822 37.0013 47.1833C35.2821 46.8505 33.764 45.8522 32.777 44.406C31.7899 42.9597 31.414 41.1821 31.7307 39.4599C32.031 38.0091 31.9811 36.5075 31.5847 35.0799C30.8985 32.5687 30.4605 29.9261 31.9351 27.5171C33.4097 25.1081 36.1107 24.8599 38.5051 24.6263C40.0965 24.4803 41.0601 22.9765 42.9727 23.2977Z" stroke="black" stroke-width="0.3" stroke-miterlimit="10"/>
<path d="M43.4107 24.977C44.5772 25.1541 45.7191 25.4677 46.8125 25.9114C47.6585 26.1786 48.4754 26.5308 49.2507 26.9626C50.8771 28.084 52.0194 29.7791 52.4481 31.7076C52.7995 33.0716 53.0291 34.4641 53.1343 35.8686C53.3956 38.0897 52.7831 40.3253 51.4261 42.1028C49.2648 44.346 46.3188 45.6646 43.2063 45.782C41.616 46.0114 39.9947 45.8816 38.4613 45.4024C37.0838 44.9774 35.8721 44.1354 34.9935 42.9927C34.1148 41.85 33.6125 40.4627 33.5557 39.0222C33.5256 37.7801 33.4133 36.5412 33.2199 35.3138C32.7216 33.1367 33.0823 30.8513 34.2273 28.9336C34.8608 28.1041 35.6556 27.4113 36.5638 26.8969C37.4721 26.3826 38.4751 26.0573 39.5125 25.9406C40.8557 25.6778 41.9507 24.831 43.4107 24.977Z" stroke="black" stroke-width="0.3" stroke-miterlimit="10"/>
<path d="M43.8341 44.4971C48.7608 44.4971 52.7547 40.5033 52.7547 35.5765C52.7547 30.6497 48.7608 26.6559 43.8341 26.6559C38.9073 26.6559 34.9135 30.6497 34.9135 35.5765C34.9135 40.5033 38.9073 44.4971 43.8341 44.4971Z" stroke="black" stroke-width="0.3" stroke-miterlimit="10"/>
</svg>
